# xmcd
#
# Track frame offsets: 
#        183
#        19605
#        36695
#        56000
#        66550
#        81930
#        102273
#        118735
#        133160
#        147243
#        163578
#        179285
#
# Disc length: 2604 seconds
#
# Revision: 4
# Processed by: cddbd v1.5.2PL0 Copyright (c) Steve Scherf et al.
# Submitted via: ExactAudioCopy v1.3
#
DISCID=b30a2a0c
DTITLE=Kris Kristofferson - Songs Of Kristofferson
DYEAR=1992
DGENRE=Country-Folk
TTITLE0=The Silver Tongued Devil
TTITLE1=Loving Her Was Easier (Than Anything I´ll Ever Do Again)
TTITLE2=Me And Bobby McGee
TTITLE3=Help Me Make It Through The Night
TTITLE4=For The Good Times
TTITLE5=Sunday Morning Comin' Down
TTITLE6=You Show Me Yours (And I´ll Show You Mine)
TTITLE7=The Pilgrim-Chapter 33 (Hang In, Hopper)
TTITLE8=Stranger
TTITLE9=I Got A Life Of My Own
TTITLE10=Why Me
TTITLE11=Who's To Bless And Who's To Blame
EXTD=(c)1992 Sony Music Special Products/ Zillion\n(p)1972,1975,1976,1
EXTD=977\nupc 027726106526\nZillion 2610652\n
EXTT0=
EXTT1=
EXTT2=
EXTT3=
EXTT4=
EXTT5=
EXTT6=
EXTT7=
EXTT8=
EXTT9=
EXTT10=
EXTT11=
PLAYORDER=
